<svg width="147" height="47" viewBox="0 0 147 47" fill="none" xmlns="http://www.w3.org/2000/svg">
<mask id="mask0_338_53" style="mask-type:luminance" maskUnits="userSpaceOnUse" x="0" y="0" width="147" height="47">
<path d="M146.509 0H0V46.6892H146.509V0Z" fill="white"/>
</mask>
<g mask="url(#mask0_338_53)">
<mask id="mask1_338_53" style="mask-type:luminance" maskUnits="userSpaceOnUse" x="0" y="0" width="147" height="47">
<path d="M146.509 0.103455H0V46.5864H146.509V0.103455Z" fill="white"/>
</mask>
<g mask="url(#mask1_338_53)">
<mask id="mask2_338_53" style="mask-type:luminance" maskUnits="userSpaceOnUse" x="0" y="14" width="147" height="19">
<path d="M146.193 14.7097H0.272278V32.1074H146.193V14.7097Z" fill="white"/>
</mask>
<g mask="url(#mask2_338_53)">
<path d="M50.3891 28.6069C49.6632 28.6359 48.9424 28.4825 48.2911 28.1608C47.6405 27.8392 47.0807 27.3594 46.6629 26.7655L48.0435 25.4887C48.3361 25.8581 48.7102 26.1547 49.1371 26.3551C49.5633 26.5555 50.031 26.6544 50.5016 26.6439C51.6395 26.6439 52.1783 26.3138 52.1783 25.5494C52.1783 24.7851 51.8484 24.6114 50.0325 24.1771C48.2172 23.7428 47.0272 23.1522 47.0272 21.1545C47.0272 19.3131 48.5646 18.1926 50.5016 18.1926C51.162 18.1852 51.8161 18.3238 52.4167 18.5986C53.0173 18.8734 53.5497 19.2775 53.9759 19.7821L52.5862 21.1979C52.3218 20.875 51.9891 20.6143 51.6121 20.4341C51.2359 20.254 50.8237 20.1589 50.4067 20.1556C49.3812 20.1556 49.0338 20.616 49.0338 21.0676C49.0338 21.7017 49.4508 21.9361 50.9707 22.2836C52.4906 22.631 54.1848 23.2043 54.1848 25.4018C54.1672 27.33 53.0117 28.6069 50.3891 28.6069Z" fill="black"/>
<path d="M60.1521 28.607C57.642 28.607 55.9308 26.6614 55.9308 23.3955C55.9308 20.1297 57.668 18.1841 60.1782 18.1841C62.6883 18.1841 64.391 20.121 64.391 23.3955C64.391 26.6701 62.6447 28.607 60.1521 28.607ZM60.1521 20.1731C58.8144 20.1731 57.9198 21.311 57.9198 23.3695C57.9198 25.428 58.8496 26.5919 60.1957 26.5919C61.5419 26.5919 62.4189 25.4801 62.4189 23.3955C62.4189 21.311 61.4814 20.1992 60.1346 20.1992L60.1521 20.1731Z" fill="black"/>
<path d="M70.6261 28.6071C68.3157 28.6071 66.7522 26.9568 66.7522 24.0037V18.3492H68.6722V24.0037C68.6722 25.6192 69.41 26.6094 70.6261 26.6094C71.8421 26.6094 72.6066 25.6192 72.6066 24.0037V18.3492H74.526V24.0037C74.552 26.9395 73.1017 28.6071 70.6261 28.6071Z" fill="black"/>
<path d="M83.5863 28.4681L80.0599 22.944C79.825 22.5705 79.5127 22.0754 79.3826 21.8062C79.3826 22.1796 79.3826 23.4564 79.3826 24.0123V28.4681H77.5237V18.3492H79.3559L82.7874 23.6996C83.0216 24.0732 83.3345 24.5682 83.4562 24.8375C83.4562 24.464 83.4562 23.1959 83.4562 22.6313V18.3492H85.3495V28.4681H83.5863Z" fill="black"/>
<path d="M91.1946 28.4681H88.3279V18.3492H91.3332C94.0783 18.3492 96.1024 19.7042 96.1024 23.413C96.1024 26.9655 93.6612 28.4681 91.1946 28.4681ZM91.2643 20.3122H90.248V26.5052H91.1946C93.2096 26.5052 94.1303 25.2631 94.1303 23.413C94.1303 21.3371 93.2969 20.3122 91.2643 20.3122Z" fill="black"/>
<path d="M104.441 21.3022C104.296 20.9649 104.053 20.6791 103.742 20.4823C103.433 20.2855 103.071 20.1868 102.704 20.1991C101.262 20.1991 100.437 21.528 100.437 23.4129C100.437 25.2977 101.305 26.6179 102.712 26.6179C103.119 26.6192 103.517 26.4971 103.854 26.2676C104.19 26.0381 104.45 25.7121 104.597 25.3324L106.239 26.3486C105.947 27.051 105.444 27.6454 104.8 28.0499C104.156 28.4544 103.402 28.649 102.643 28.607C100.159 28.607 98.4219 26.6006 98.4219 23.3955C98.4219 20.1905 100.159 18.1841 102.686 18.1841C103.425 18.156 104.155 18.356 104.776 18.7569C105.398 19.1578 105.881 19.7401 106.16 20.425L104.441 21.3022Z" fill="black"/>
<path d="M108.975 28.4681V18.3492H110.904V26.4704H115.716V28.4681H108.975Z" fill="black"/>
<path d="M120.932 28.607C118.422 28.607 116.713 26.6614 116.713 23.3955C116.713 20.1297 118.45 18.1841 120.961 18.1841C123.471 18.1841 125.173 20.121 125.173 23.3955C125.173 26.6701 123.436 28.607 120.932 28.607ZM120.932 20.1731C119.589 20.1731 118.696 21.311 118.696 23.3695C118.696 25.428 119.631 26.5919 120.968 26.5919C122.304 26.5919 123.211 25.454 123.211 23.3955C123.211 21.337 122.276 20.1992 120.925 20.1992L120.932 20.1731Z" fill="black"/>
<path d="M131.426 28.6071C129.105 28.6071 127.544 26.9568 127.544 24.0037V18.3492H129.464V24.0037C129.464 25.6192 130.203 26.6094 131.426 26.6094C132.65 26.6094 133.403 25.6192 133.403 24.0037V18.3492H135.316V24.0037C135.337 26.9395 133.888 28.6071 131.426 28.6071Z" fill="black"/>
<path d="M141.286 28.5288H138.417V18.4099H141.413C144.163 18.4099 146.196 19.7649 146.196 23.465C146.196 27.0262 143.755 28.5288 141.286 28.5288ZM141.357 20.3728H140.337V26.5658H141.286C143.298 26.5658 144.219 25.3151 144.219 23.465C144.219 21.3977 143.382 20.3728 141.357 20.3728Z" fill="black"/>
<path d="M39.2103 26.9567C39.128 28.3568 38.5084 29.6709 37.4809 30.6256C36.4533 31.5802 35.0973 32.1017 33.6949 32.0813H20.4234C20.1322 32.079 19.8537 31.9618 19.649 31.7552C19.4436 31.5486 19.329 31.2693 19.329 30.9782V16.7249C19.3212 16.4826 19.3867 16.2437 19.5168 16.0392C19.6469 15.8347 19.8361 15.6741 20.0584 15.5784C21.2139 14.9382 22.5263 14.6371 23.8457 14.7098C25.4253 14.7045 26.9775 15.1278 28.3364 15.9345C29.3871 16.5506 30.3 17.3769 31.0174 18.3617C31.7348 19.3467 32.2412 20.4689 32.5049 21.6584C32.9614 21.5216 33.4361 21.4543 33.9123 21.4586C34.6254 21.4581 35.3308 21.6015 35.987 21.8802C36.6432 22.1588 37.2368 22.5671 37.7313 23.0804C38.2257 23.5938 38.6118 24.2017 38.8664 24.8677C39.1203 25.5338 39.2377 26.2443 39.2103 26.9567Z" fill="black"/>
<path d="M17.6442 17.6195C17.6442 17.5043 17.5985 17.3938 17.5169 17.3124C17.4353 17.231 17.3249 17.1852 17.2103 17.1852C17.0949 17.1852 16.9845 17.231 16.9029 17.3124C16.8213 17.3938 16.7756 17.5043 16.7756 17.6195C16.2763 22.2995 16.2763 27.0192 16.7756 31.6991C16.7756 31.8143 16.8213 31.9248 16.9029 32.0062C16.9845 32.0877 17.0949 32.1334 17.2103 32.1334C17.3249 32.1334 17.4353 32.0877 17.5169 32.0062C17.5985 31.9248 17.6442 31.8143 17.6442 31.6991C18.3567 26.8698 18.0697 22.4662 17.6442 17.6195Z" fill="black"/>
<path d="M15.0385 19.2873C15.0111 19.1929 14.9541 19.1099 14.876 19.0507C14.798 18.9917 14.7023 18.9597 14.6039 18.9597C14.5061 18.9597 14.4105 18.9917 14.3317 19.0507C14.2536 19.1099 14.1967 19.1929 14.1699 19.2873C13.6924 23.4166 13.6924 27.5872 14.1699 31.7166C14.1896 31.8169 14.2445 31.9072 14.3232 31.972C14.4027 32.0368 14.5019 32.0723 14.6039 32.0723C14.7066 32.0723 14.8057 32.0368 14.8845 31.972C14.964 31.9072 15.0181 31.8169 15.0385 31.7166C15.5723 27.5907 15.5723 23.4132 15.0385 19.2873Z" fill="black"/>
<path d="M12.302 18.8614C12.302 18.7463 12.2563 18.6358 12.1747 18.5543C12.0931 18.4729 11.9827 18.4272 11.8673 18.4272C11.752 18.4272 11.6416 18.4729 11.5607 18.5543C11.4791 18.6358 11.4334 18.7463 11.4334 18.8614C10.9206 23.1282 10.9206 27.4409 11.4334 31.7077C11.4334 31.8229 11.4791 31.9334 11.5607 32.0148C11.6416 32.0963 11.752 32.142 11.8673 32.142C11.9827 32.142 12.0931 32.0963 12.1747 32.0148C12.2563 31.9334 12.302 31.8229 12.302 31.7077C12.8358 27.4423 12.8358 23.1269 12.302 18.8614Z" fill="black"/>
<path d="M9.62743 20.1124C9.6007 20.018 9.54372 19.935 9.46495 19.8759C9.38688 19.8168 9.29121 19.7848 9.19275 19.7848C9.09499 19.7848 8.99935 19.8168 8.92128 19.8759C8.84251 19.935 8.78553 20.018 8.7588 20.1124C8.26367 23.9676 8.26367 27.8702 8.7588 31.7253C8.7792 31.8256 8.83337 31.9159 8.91214 31.9807C8.99161 32.0456 9.09077 32.081 9.19275 32.081C9.29543 32.081 9.39459 32.0456 9.47336 31.9807C9.55284 31.9159 9.60703 31.8256 9.62743 31.7253C10.157 27.8725 10.157 23.9652 9.62743 20.1124Z" fill="black"/>
<path d="M6.917 23.0047C6.8966 22.9044 6.84241 22.8141 6.76293 22.7493C6.68416 22.6844 6.585 22.649 6.48232 22.649C6.38034 22.649 6.28118 22.6844 6.20171 22.7493C6.12293 22.8141 6.06877 22.9044 6.04837 23.0047C5.40554 25.9926 5.70937 28.7373 6.04837 31.7426C6.04837 31.8578 6.09411 31.9683 6.17569 32.0497C6.25728 32.1312 6.36768 32.1769 6.48232 32.1769C6.59766 32.1769 6.70809 32.1312 6.78968 32.0497C6.87126 31.9683 6.917 31.8578 6.917 31.7426C7.28202 28.6852 7.59429 26.0013 6.917 23.0047Z" fill="black"/>
<path d="M4.23284 22.527C4.20119 22.437 4.14281 22.3592 4.06474 22.304C3.98667 22.2489 3.89384 22.2194 3.79889 22.2194C3.70324 22.2194 3.61043 22.2489 3.53236 22.304C3.455 22.3592 3.39591 22.437 3.36426 22.527C2.88249 25.4372 2.88249 28.4068 3.36426 31.317C3.38465 31.4173 3.43882 31.5076 3.51759 31.5724C3.59707 31.6372 3.69621 31.6727 3.79889 31.6727C3.90087 31.6727 4.00008 31.6372 4.07955 31.5724C4.15832 31.5076 4.21245 31.4173 4.23284 31.317C4.76244 28.4109 4.76244 25.433 4.23284 22.527Z" fill="black"/>
<path d="M1.52241 24.0382C1.49076 23.9483 1.43238 23.8704 1.35431 23.8153C1.27694 23.7602 1.18341 23.7306 1.08846 23.7306C0.992811 23.7306 0.899954 23.7602 0.821886 23.8153C0.744521 23.8704 0.685433 23.9483 0.653784 24.0382C0.188892 25.9443 0.188892 27.9342 0.653784 29.8404C0.653784 29.9555 0.69952 30.066 0.781105 30.1474C0.86269 30.2289 0.973118 30.2746 1.08846 30.2746C1.20381 30.2746 1.31421 30.2289 1.39509 30.1474C1.47667 30.066 1.52241 29.9555 1.52241 29.8404C2.07873 27.9463 2.07873 25.9323 1.52241 24.0382Z" fill="black"/>
</g>
</g>
</g>
</svg>
