<svg width="36" height="36" viewBox="0 0 36 36" fill="none" xmlns="http://www.w3.org/2000/svg">
<circle cx="17.5455" cy="17.5455" r="17.5455" fill="#E7E2FE"/>
<g clip-path="url(#clip0_338_290)">
<path d="M27.0979 9.55277V12.672C27.0979 13.1024 26.7493 13.4518 26.3181 13.4518C25.8868 13.4518 25.5383 13.1024 25.5383 12.672V10.6554L22.3699 13.823C21.3219 14.871 19.6165 14.8718 18.5684 13.823L16.5885 11.8438C16.1479 11.4032 15.432 11.4048 14.9922 11.8438L9.71376 17.1223C9.5617 17.2744 9.36207 17.3508 9.16244 17.3508C8.96281 17.3508 8.76318 17.2744 8.61112 17.1223C8.30622 16.8174 8.30622 16.3246 8.61112 16.0197L13.8896 10.7412C14.9377 9.69313 16.6431 9.69235 17.6911 10.7412L19.6711 12.7203C20.1116 13.1617 20.8275 13.1593 21.2673 12.7203L24.4349 9.55277H22.4183C21.9871 9.55277 21.6385 9.20342 21.6385 8.77297C21.6385 8.34252 21.9871 7.99316 22.4183 7.99316H25.5375C26.3976 7.99316 27.0979 8.69265 27.0979 9.55277ZM25.2926 20.6782L22.922 20.2836C22.6304 20.2353 22.4191 19.9857 22.4191 19.6902C22.4191 19.2597 22.7684 18.9104 23.1989 18.9104H24.9675C25.2451 18.9104 25.504 19.0593 25.6436 19.3011C25.8572 19.6738 26.3337 19.8025 26.7088 19.5849C27.0815 19.3697 27.2094 18.8925 26.9926 18.5197C26.5762 17.7992 25.7995 17.3508 24.9667 17.3508H24.7577V16.571C24.7577 16.1405 24.4091 15.7912 23.9779 15.7912C23.5467 15.7912 23.1981 16.1405 23.1981 16.571V17.3508C21.9083 17.3508 20.8587 18.4004 20.8587 19.6902C20.8587 20.7499 21.6182 21.6475 22.6639 21.8214L25.0345 22.216C25.3262 22.2643 25.5375 22.5138 25.5375 22.8094C25.5375 23.2398 25.1881 23.5892 24.7577 23.5892H22.9891C22.7115 23.5892 22.4526 23.4403 22.313 23.1985C22.0986 22.825 21.6206 22.6955 21.2478 22.9147C20.8751 23.1299 20.7472 23.6071 20.964 23.9799C21.3804 24.7012 22.1571 25.1488 22.9899 25.1488H23.1989V25.9286C23.1989 26.3598 23.5474 26.7084 23.9787 26.7084C24.4099 26.7084 24.7585 26.3598 24.7585 25.9286V25.1488C26.0483 25.1488 27.0979 24.0992 27.0979 22.8094C27.0979 21.7496 26.3384 20.8521 25.2926 20.6782ZM9.94224 18.9104C9.51101 18.9104 9.16244 19.259 9.16244 19.6902V25.9286C9.16244 26.3598 9.51101 26.7084 9.94224 26.7084C10.3735 26.7084 10.722 26.3598 10.722 25.9286V19.6902C10.722 19.259 10.3735 18.9104 9.94224 18.9104ZM13.8413 15.4013C13.41 15.4013 13.0615 15.7506 13.0615 16.1811V25.9286C13.0615 26.3598 13.41 26.7084 13.8413 26.7084C14.2725 26.7084 14.6211 26.3598 14.6211 25.9286V16.1811C14.6211 15.7506 14.2725 15.4013 13.8413 15.4013ZM17.7403 15.4013C17.309 15.4013 16.9605 15.7506 16.9605 16.1811V25.9286C16.9605 26.3598 17.309 26.7084 17.7403 26.7084C18.1715 26.7084 18.5201 26.3598 18.5201 25.9286V16.1811C18.5201 15.7506 18.1715 15.4013 17.7403 15.4013Z" fill="white"/>
</g>
<defs>
<clipPath id="clip0_338_290">
<rect width="18.7152" height="18.7152" fill="white" transform="translate(8.38269 7.99316)"/>
</clipPath>
</defs>
</svg>
